<?xml version="1.0" encoding="UTF-8"?>
<svg version="1.1" viewBox="0 0 1172 824" width="293" height="206" xmlns="http://www.w3.org/2000/svg">
<path transform="translate(0)" d="m0 0h1172v824h-1172z" fill="#626E3A"/>
<path transform="translate(588,20)" d="m0 0h46l23 5 15 5 19 9 17 11 14 11 12 12 8 9 10 15 10 18 8 20 5 20 2 13 1 1 22 1 2 2v28l-4 28-5 24-8 30-10 29-8 21-11 26-7 16-10 19-6 15-5 17-1 7v28l4 16 7 17 9 14-1 4-21 14-19 11-24 13-28 14-24 10-38 14-33 9-5 1h-10v-6l3-9 2-19-2-5-9-9-8-7-5-8-1-4-1-21-6-12-7-6-7-2h-49l-13-1-13-4-8-6-3-6v-12l7-20v-5l-13-8-6-9-1-5 3-6-1-4-6-7-3-9 4-11-1-9-3-6-3-3-3-1-17-2-10-6-3-5 1-8 26-39 16-26 4-8v-8l-6-20 1-7 6-18 7-24 3-13 3-3h24v-9l4-20 7-20 8-16 10-16 9-11 11-12 10-9 15-11 17-10 21-9 25-6z" fill="#626E3A"/>
<path transform="translate(427,178)" d="m0 0h18l2 29 3 17 5 17 7 16 7 14 12 17 12 13 11 11 15 11 17 10 18 8 19 6 19 3h37l19-3 20-6 15-7 14-7 12-8 16-13 9-9 11-14 10-15 8-16 6-16 6-25 2-16 1-17h16l1 3-3 30-6 34-8 30-12 36-11 28-13 29-8 16-7 15-6 19-2 10-1 12v12l2 17 6 18 7 14 3 4-1 4-19 12-15 9-28 15-31 14-44 17-39 12h-4l1-8 1-6v-12l-4-9-2-4-4-2-11-10-4-8-1-20-4-10-6-9-8-6-5-2-8-1h-51l-12-2-8-4-4-4 1-11 5-16 1-8-1-7-4-2-10-6-4-5 1-5 8-5-1-5-9-5-5-5-1-3 4-10-1-10-4-9-7-8-6-2-16-3-7-3 1-4 22-33 13-20 10-18 1-3v-11l-5-18 1-8 10-33 4-16z" fill="#626E3A"/>
<path transform="translate(521,109)" d="m0 0h16l14 2 13 5 14 9 9 8 8 11 7 14 4 16 5 35 4 11 7 13 8 10 8 8 10 7 12 6 19 5 5 1h18l19-5 10-4 13-8 12-11h2l-1 5-8 16-10 16-11 13-13 13-14 11-11 7-12 6-17 7-14 4-18 3h-33l-19-3-19-5-18-8-14-8-14-10-12-11-8-8-10-13-11-18-9-21-6-21-2-14v-31l4-15 8-15 8-10 13-11 16-8 5-2z" fill="#626E3A"/>
<path transform="translate(588,20)" d="m0 0h46l23 5 15 5 19 9 17 11 14 11 12 12 8 9 10 15 10 18 8 20 5 20 2 13 1 1 22 1 2 2v28l-4 28-5 24-8 30-10 29-8 21-11 26-7 16-10 19-6 15-5 17-1 7v28l4 16 7 17 9 14-1 4-21 14-19 11-24 13-28 14-24 10-38 14-33 9-5 1h-10v-6l3-9 2-19-2-5-9-9-8-7-5-8-1-4-1-21-6-12-7-6-7-2h-49l-13-1-13-4-8-6-3-6v-12l7-20v-5l-13-8-6-9-1-5 3-6-1-4-6-7-3-9 4-11-1-9-3-6-3-3-3-1-17-2-10-6-3-5 1-8 26-39 16-26 4-8v-8l-6-20 1-7 6-18 7-24 3-13 3-3h24v-9l4-20 7-20 8-16 10-16 9-11 11-12 10-9 15-11 17-10 21-9 25-6zm18 7-20 2-25 6-19 8-15 8-16 12-14 12-12 14-12 19-8 17-1 5 4-2 9-9 14-9 12-5 14-3 7-1h13l18 3 12 5 12 7 11 9 8 9 8 14 5 14 4 17 1 17 3 14 6 14 9 12 10 10 12 8 13 5 16 3h14l16-3 12-5 11-7 10-8 9-12 7-13 4-15 1-10v-12l-3-23-5-19-6-15-9-17-11-16-11-12-11-11-14-10-15-9-16-7-15-5-24-5-12-1zm-85 82-16 3-16 8-9 7-9 8-9 14-5 11-3 12v31l3 18 6 20 9 20 10 16 8 10 9 10 9 9 15 11 17 10 18 8 24 6 14 2h33l21-4 16-5 21-9 14-9 10-8 12-11 9-9 11-15 9-15 6-13v-3l-4 2-11 10-13 8-19 6-9 2h-18l-21-5-11-5-10-6-12-11-8-10-9-17-3-12-4-30-4-16-8-16-11-13-12-9-16-8-9-2-9-1zm-94 69-3 9-7 25-6 20 1 8 4 14v11l-8 16-10 16-22 33-7 10v3l11 4 15 3 5 3 6 7 4 12-1 9-3 8 3 5 10 6 3 2v4l-9 6 1 6 7 6 8 5h2l1 8-3 14-4 14v6l7 6 9 3 8 1h51l11 2 9 6 6 8 4 8 1 4 1 20 4 8 13 12h2l2 4 4 9v12l-2 9v5l7-1 30-9 19-7 33-13 24-11 16-8 21-11 24-15 7-5-1-4-6-10-6-15-4-15-1-12v-12l2-17 6-21 7-16 8-16 11-24 13-32 12-36 7-25 5-24 4-26 2-24-1-1h-16l-2 26-5 25-7 21-8 16-10 16-9 11-11 12-9 8-15 11-12 7-22 10-20 6-19 3h-37l-19-3-19-6-14-6-18-10-14-10-12-11-11-11-10-13-8-13-8-16-6-16-5-21-2-18-1-18z" fill="#FEFEFA"/>
<path transform="translate(687,701)" d="m0 0h18l13 4 9 6 6 9 2 5v17l-3 8-7 8-10 6-11 3h-15l-10-2-12-6-7-7-4-8-1-5v-11l4-11 7-8 12-6z" fill="#626E3A"/>
<path transform="translate(984,700)" d="m0 0h8l13 3 8 6 4 7 1 4 1 37 15 1v5l-2 2h-21l-1-1v-6l-22 8-6 1h-13l-9-3-8-7-2-5v-8l4-7 9-6 15-4 19-3 12-1-1-7-5-5-6-3h-22l-8 4-6 5-5-1v-5l6-5 11-4z" fill="#FEFEFA"/>
<path transform="translate(158,700)" d="m0 0h9l12 3 6 4 6 7 1 3v41l14-1 2 1v6l-1 1h-22l-1-1v-6l-18 7-10 2h-11l-9-2-8-6-4-7v-8l4-6 6-5 9-4 21-4 20-2-1-6-5-6-7-3h-22l-6 3-6 5h-6l-1-4 7-6 10-4z" fill="#FEFEFA"/>
<path transform="translate(779,707)" d="m0 0h15l15 5 7 3 1 5v26l-5 5-10 6-8 3h-17l-8-3-9-8-3-6-1-11 2-9 6-8 5-4z" fill="#626E3A"/>
<path transform="translate(689,148)" d="m0 0h16l8 3 7 7 4 8 1 10-3 9-6 8-5 4-11 4h-7l-9-3-9-8-4-8-1-3v-11l4-9 5-6z" fill="#FEFEFA"/>
<path transform="translate(520,148)" d="m0 0h16l7 3 6 5 6 11v12l-5 10-7 7-8 4-11 1-11-4-6-5-5-8-1-3v-15l4-8 5-5 4-3z" fill="#FEFEFA"/>
<path transform="translate(844,675)" d="m0 0h22l1 1v37l13-8 15-5h14l9 4 6 7 2 6 1 40h12l2 1v6l-1 1h-36l-1-1v-5l1-1 13-1v-41l-4-5-6-3h-16l-12 5-11 7v37h12l2 1v6l-1 1h-37v-7l14-1 1-76-14 1-2-3z" fill="#FEFEFA"/>
<path transform="translate(567,674)" d="m0 0 5 1 1 38 11-7 9-4 8-2h13l9 4 6 7 3 9v37l15 1v6l-1 1h-36l-2-5 1-2 14-1v-38l-3-6-5-4-3-1h-15l-11 4-11 7-3 1v37h14l1 1v6l-1 1h-35l-2-2 1-5h14v-77h-14l-1-5 1-1z" fill="#FEFEFA"/>
<path transform="translate(802,675)" d="m0 0h22v83l14-1 2 1v6l-1 1h-22v-8l-14 7-14 3-14-1-11-4-9-8-5-10-1-4v-14l4-9 4-6 9-6 13-4h17l13 4 7 2v-25l-14-1-1-5zm-23 32-10 4-8 7-4 8-1 12 3 9 7 8 7 4 4 1h17l10-4 11-7 2-3v-26l-1-5-15-6-7-2z" fill="#FEFEFA"/>
<path transform="translate(1089,700)" d="m0 0h14l10 5 4 5 3 8v40l12-1 3 2v5l-2 1h-35l-1-1v-6l14-1v-39l-3-6-7-4h-16l-10 4-10 6-4 2v37h13l1 1v7h-36l-1-6 1-1h13v-49l-12 1-2-1-1-5 4-2h19l1 11 11-7 13-5z" fill="#FEFEFA"/>
<path transform="translate(369,702)" d="m0 0h21l1 1 1 47 3 6 5 3h18l11-5 10-6 1-1v-37h-11l-3-1v-5l4-2h18l1 1v55l13-1 2 1v6l-2 1h-20l-1-1v-9l-14 8-8 3-6 1h-13l-9-3-6-7-2-7v-40h-14l-2-5z" fill="#FEFEFA"/>
<path transform="translate(235,700)" d="m0 0h19l12 4 5-1 1-1h5l1 1v18l-3 3-4-2-2-8-8-5-3-1-15-1-12 2-5 6 1 7 9 3 13 3 17 3 10 5 7 8v8l-3 5-7 6-8 3-6 1h-10l-13-2-9-4-2-1-2 5-4 1-2-1v-22l4-1 6 10 9 6 4 1h23l8-4 3-3v-7l-4-4-7-3-24-4-14-5-5-4-3-9 3-7 7-6z" fill="#FEFEFA"/>
<path transform="translate(493,700)" d="m0 0h19l11 4 4 1 4-4 4 1 1 19-2 3-5-2-3-9-7-4-4-1h-23l-6 3-2 4 1 7 6 2 15 4 15 2 12 5 7 8v10l-3 5-6 5-9 3-6 1h-9l-16-3-9-4-1 5h-6v-22l4-1 6 11 9 5 12 2h8l10-2 6-4 2-4-1-7-10-5-24-4-12-4-6-4-3-5v-7l3-6 6-5z" fill="#FEFEFA"/>
<path transform="translate(687,701)" d="m0 0h18l13 4 9 6 6 9 2 5v17l-3 8-7 8-10 6-11 3h-15l-10-2-12-6-7-7-4-8-1-5v-11l4-11 7-8 12-6zm-1 6-11 4-8 7-3 6-1 5v12l5 10 8 6 8 3 16 1 11-2 8-5 5-5 3-5v-19l-4-8-6-5-9-4-4-1z" fill="#FEFEFA"/>
<path transform="translate(308,680)" d="m0 0 6 1v21h42l3 1v5l-1 1-31 1h-13l1 41 3 5 8 3h15l13-4 5-1 1 1v5l-8 4-15 3h-8l-10-2-7-4-4-5-2-5v-41l-18-1v-5l2-2h16v-20z" fill="#FEFEFA"/>
<path transform="translate(32,702)" d="m0 0h27l2 2-1 5-2 1h-8l12 25 10 20h2l17-35 5-11-8 1-3-1-1-5 3-2h29l1 1v6l-2 1-10 1-10 19-15 29-4 6-5 1-5-6-10-18-11-23-4-8-2-1-10-1-1-4 1-2z" fill="#FEFEFA"/>
<path transform="translate(479,726)" d="m0 0 11 5 12 3 19 3 10 5 2 4-1 7-6 5-5 2-7 1-16-1-10-4-5-5-4-8h-4l-1-6 4-10z" fill="#6E7942"/>
<path transform="translate(220,725)" d="m0 0 12 6 12 3 19 3 10 5 2 3v7l-7 6-5 2h-23l-8-3-8-7-3-7-3-2v-4l-2-1 2-4h2l-1-6z" fill="#6E7942"/>
<path transform="translate(1e3 730)" d="m0 0 5 1v20l-13 6-10 3h-18l-8-4-3-4-1-6 4-6 7-4 16-4z" fill="#6F7A43"/>
<path transform="translate(179,730)" d="m0 0h5v21l-10 5-13 4h-17l-9-4-3-4v-8l5-5 8-4 13-3z" fill="#6E7942"/>
<path transform="translate(243,706)" d="m0 0 15 1 10 5 3 4 1 6 5 1 1-2 2 3 5-1 5-3 2 3v6l-4 3-4 1-2 1h-6l-1 2-9-4-23-4-12-4-4-2-2-3 1-6 5-5z" fill="#6E7942"/>
<path transform="translate(522,156)" d="m0 0h10l7 3 6 7 1 3v11l-4 6-7 5-3 1h-10l-8-5-3-3-2-7v-7l3-7 5-5z" fill="#6F7A43"/>
<path transform="translate(691,156)" d="m0 0h11l6 3 7 8 1 3v9l-6 8-6 4-3 1h-9l-8-4-5-7v-14l4-6 5-4z" fill="#6E7942"/>
<path transform="translate(492,707)" d="m0 0h23l8 3 5 5 2 7 4 1 2-2-1 5 2 4 2 1-3 7-12-6-10-2-17-3-10-4-3-3-1-5 4-6z" fill="#6E7942"/>
<path transform="translate(149,707)" d="m0 0h22l8 4 5 6 1 6-1 1-27 3-19 4h-3l-1-3-10-1v2l-3-1 2-9 2 1 6-2v-2l8-1 1-3 6-4z" fill="#6E7942"/>
<path transform="translate(573,109)" d="m0 0 10 5 8 5 4 3v2l4 2 4 5v2h2l1 9h2l4 15 2 2 2 6v7l2 4 1 7 2 7v6l1 7 2 10 5 10 5 5 5 4-1 2 4 2v2l5 2 3 3-1 2 3-1 4 2 6 4h3v2l10 1 11 3 7 3h12l12-3 4 1-9 3-13 2h-14l-16-3-13-5-13-9-11-11-9-14-5-13-2-11-1-17-5-21-7-16-7-10-9-10-16-11z" fill="#6E7942"/>
<path transform="translate(975,707)" d="m0 0h22l8 4 4 5 1 7-1 1-26 3-19 4-4-3-2-7v-4l6-3 6-5z" fill="#6F7A43"/>
<path transform="translate(492,288)" d="m0 0 5 1 2 4 5 2 7 6 3 1 2 2 5 2v2l6 2v2l6 1v3l6 1 1 3 5 1 4 3 10 2 7 4 7 2v2h5l3 3 16 1 19 1 13 1 18-1v1l-18 3h-33l-19-3-19-5-18-8-14-8-14-10-12-11-8-8z" fill="#6F7A43"/>
<path transform="translate(673,712)" d="m0 0 2 1-3 4h-1l-2 9-2 2v13l1 3 7 1 1 2 3 1 1-2 8 3 11 2 6 1 11 1 2 2-10 5-16 1-12-2-10-6-6-9-1-3v-12l3-9z" fill="#6E7942"/>
<path transform="translate(179,730)" d="m0 0h5v21l-6-2-6 3-3-2h3l1-3 2-1-3-5-6 2-2 1-1-2-18 2-1-8 9-3 13-2z" fill="#636F3A"/>
<path transform="translate(757,726)" d="m0 0 2 4 1 4 1 5 3 9 2 1 1-2 4 2 5 1 9 2 7 2h14l-4 3-8 3h-17l-8-3-9-8-3-6-1-11z" fill="#6F7A43"/>
<path transform="translate(432,431)" d="m0 0 2 3v13l-3 11v2h2l1 7 5 2 3 4 3 1 1 2 6 2 1 1 22 1v1h-26l-12-2-8-4-4-4 1-11 5-16z" fill="#6E7942"/>
<path transform="translate(992,731)" d="m0 0h16l-2 9-1 4-3-1v-2l-8-1-8 2h-11l-2-1-1-5 7-3z" fill="#626E3A"/>
<path transform="translate(573,109)" d="m0 0 10 5 8 5 4 3v2l4 2 4 5v2h2l1 9h2l4 15 2 2 2 6v9l-2-1-5-18-8-16-8-11-10-9-12-8z" fill="#6F7A43"/>
<path transform="translate(314,710)" d="m0 0 2 3v37l3 1 1 4 1-2h6l2-1 16 3 7 1-3 2-8 2h-15l-8-3-3-3-1-3z" fill="#6F7A43"/>
<path transform="translate(89,709)" d="m0 0h7l-1 5-15 30-4 9-1-2h-2l-1-6 5-7 1-5 3-3 2-4h2l1-5h2v-7l-1-2z" fill="#6F7A43"/>
<path transform="translate(155,707)" d="m0 0h16l8 4 4 4-1 6 1 2-7-1-6-3v-2h2l-1-3h-4l-10-1h-2l-3-5z" fill="#626E3A"/>
<path transform="translate(544,338)" d="m0 0 5 1 17 6 12 3 14 2h37l19-3 10-3 4 1-16 5-10 2-13 1h-31l-24-4-8-3-15-5z" fill="#6F7A43"/>
<path transform="translate(555,554)" d="m0 0 3 3 2 13v5l5 1 11 2v3l3 1-20 6h-4l1-8 1-6v-12z" fill="#6F7A43"/>
<path transform="translate(726,725)" d="m0 0h1v19l-5 8-4 2 1-7 1-5v-2h2v-2l-10 5-1-2 5-10 5 2 2-5z" fill="#6E7942"/>
<path transform="translate(427,178)" d="m0 0h18l2 29 1 13-2-2-2-18-1-21-14 1-2 3v8l-1 9-4 1 1 3-5 13-1 7-3 1 2-10 7-24 3-12z" fill="#6F7A43"/>
<path transform="translate(550,681)" d="m0 0h14v77h-14l2-5h3l4 1 2-1v-6l1-5v-48l1-12h-13z" fill="#6F7A43"/>
<path transform="translate(523,157)" d="m0 0h12l5 9-1 2-5-1-4-3h-8l-1 3h-2v-2l-3 1 1-6z" fill="#626E3A"/>
<path transform="translate(1018,724)" d="m0 0h1l1 32h32v2l-13 1v6h35v1h-41v-3l1-5h-15l-1-1z" fill="#6F7A43"/>
<path transform="translate(756,242)" d="m0 0h2l-1 5-8 16-2 2-2-6v-2l-7 3-3-1 10-7 10-9z" fill="#6E7942"/>
<path transform="translate(729,417)" d="m0 0h1v11l-1 9v26l2 6-1 3h2l3 9v5l-3-4-5-16-1-6v-28z" fill="#6F7A43"/>
<path transform="translate(824,675)" d="m0 0h1l1 16v59l2 6h7l1 2h-12z" fill="#6F7A43"/>
<path transform="translate(531,505)" d="m0 0 1 3h2l1 8 3 5 1 5-1 6 2 6 2-1v2l4 1-1 2-5-1-6-7-2-5z" fill="#6E7942"/>
<path transform="translate(730,497)" d="m0 0 4 5 2 3-1 4-19 12-2-1v-3l5-1v-2h2v-2h2l2-5 4-4z" fill="#6E7942"/>
<path transform="translate(418,408)" d="m0 0h2l-1 4 3 1 4 5 1 3 2 2 2 6-4-2-10-6-4-5 1-5z" fill="#6F7A43"/>
<path transform="translate(745,265)" d="m0 0h2l-2 5-10 14-11 12-9 9-9 7v-3l4-5h3v-2l8-6 7-8 3-4h2l1-4 2-5h2v-3l4-4z" fill="#6F7A43"/>
<path transform="translate(410,754)" d="m0 0 11 2 4 1-7 3h-18l-4-3 2-2z" fill="#6F7A43"/>
<path transform="translate(431,485)" d="m0 0 10 2 13 1h49v1l-9 1-41 1-17-2-3-1v-2z" fill="#6F7A43"/>
<path transform="translate(629,29)" d="m0 0 11 1 20 5 20 8 11 6-3 1-14-7-9-3-3-2-10-2-4-2-12-2-7-2z" fill="#6F7A43"/>
<path transform="translate(504,489)" d="m0 0 6 1 8 7 6 12 1 25-2-3-1-21-2-4-4-4v-2l-2-1-2-4h-2v-2h-2l-1-2z" fill="#6F7A43"/>
<path transform="translate(449,703)" d="m0 0h1l1 47 1 2 8 4v2h-11z" fill="#6F7A43"/>
<path transform="translate(478,113)" d="m0 0 5 1-4 4-8 7-5 5h-2l3-10 3-4h5z" fill="#6E7942"/>
<path transform="translate(192,719)" d="m0 0h1l1 29 1 3 3 1v2l4 1 3 2-1 1h-12z" fill="#6F7A43"/>
<path transform="translate(981,707)" d="m0 0h16l3 3h-2v3l-4 1v-2h-11l-6-3z" fill="#626E3A"/>
<path transform="translate(58,709)" d="m0 0 2 1v2h-2l-1 5-1 2h2l3 10-2 2-9-19v-2z" fill="#6E7942"/>
<path transform="translate(778,178)" d="m0 0h16v1l-14 1 1 6 6 2-1 2-3 1-2 3h-1l-2 10h-1z" fill="#6E7942"/>
<path transform="translate(458,221)" d="m0 0 2 1 2 4 2 10 2 3 2 7 2 3 3 9-1 3-9-20-5-16z" fill="#6F7A43"/>
<path transform="translate(456,163)" d="m0 0h1v8l-1 5v25l1 8 1 1v11l-2-4-2-14v-31z" fill="#6F7A43"/>
<path transform="translate(742,80)" d="m0 0h2l2 5 4 2v2l3 1v3l4 7-3 2-9-14-3-4z" fill="#6E7942"/>
<path transform="translate(1061,720)" d="m0 0 2 1v34l-1 2h9v1h-10l-1-1v-25z" fill="#6F7A43"/>
<path transform="translate(518,483)" d="m0 0 5 2 3 4v2h2l4 11-2 3-7-13-7-6z" fill="#6E7942"/>
<path transform="translate(172,713)" d="m0 0 7 2h4l-1 6 1 2-7-1-6-3v-2h2l-1-3z" fill="#626E3A"/>
<path transform="translate(563,746)" d="m0 0h1v12h-14l2-5h3l4 1 2-1z" fill="#6E7942"/>
<path transform="translate(791,182)" d="m0 0h3v12l-1 9h-1v-8l-3-1v-4l-2-1z" fill="#6F7A43"/>
<path transform="translate(916,714)" d="m0 0 2 2v41l-1 1h-13v-2h11l1-1z" fill="#6F7A43"/>
<path transform="translate(539,753)" d="m0 0 3 4-3 1-1 3-9 5-5 1-7 1h-9v-1l18-3 8-4 4-4z" fill="#6F7A43"/>
<path transform="translate(413,225)" d="m0 0 1 4 1 12 3 8v16h-1l-2-15-4-14 1-8z" fill="#6F7A43"/>
<path transform="translate(632,721)" d="m0 0h1l1 35 13 1v1h-15l-1-1z" fill="#6F7A43"/>
<path transform="translate(1008,758)" d="m0 0h2l1 7-5 1-2-1v-2l-3 1h-7l3-2z" fill="#6F7A43"/>
<path transform="translate(724,307)" d="m0 0v3l-3 1-2 4-17 12-4 2v-3l11-7z" fill="#6F7A43"/>
<path transform="translate(939,757)" d="m0 0 4 1 1 6-2 2h-38v-1l36-1 1-6z" fill="#6F7A43"/>
<path transform="translate(474,743)" d="m0 0h1v22l-5-1 1-8 2-3z" fill="#6F7A43"/>
<path transform="translate(1111,718)" d="m0 0h1v39l-1 1h-14v-1l13-2z" fill="#6F7A43"/>
<path transform="translate(377,329)" d="m0 0 1 4-4 2v5l3 1-1 4-5-1-2-1 1-4z" fill="#6F7A43"/>
<path transform="translate(711,196)" d="m0 0h2l-1 3-9 2v2h-8l-10-2-1-3 9 2h7z" fill="#6F7A43"/>
<path transform="translate(394,358)" d="m0 0 5 4 3 8-1 9-2-3-1-7-1-4-3-2z" fill="#6F7A43"/>
<path transform="translate(548,190)" d="m0 0 2 2-8 7-10 4-8-1v-1l13-3 7-4z" fill="#6F7A43"/>
<path transform="translate(671,182)" d="m0 0 2 3 6 8 5 5-6-1-6-7z" fill="#6E7942"/>
<path transform="translate(1e3 716)" d="m0 0 4 2 1 3 2 2h-8l-1-4-2-1z" fill="#626E3A"/>
<path transform="translate(174,709)" d="m0 0 5 2 3 4-5 1-4-1-1-5z" fill="#6F7A43"/>
<path transform="translate(505,68)" d="m0 0v3l-15 15v-3l10-11z" fill="#6B7640"/>
<path transform="translate(717,299)" d="m0 0 2 2-11 10-3 1 2-4 3-4h3v-2z" fill="#6F7A43"/>
<path transform="translate(759,106)" d="m0 0 3 3 4 10v5l-3-4-5-11z" fill="#6F7A43"/>
<path transform="translate(243,706)" d="m0 0 15 1v3l-12-1-4 1-3-3z" fill="#646F3B"/>
<path transform="translate(224,759)" d="m0 0 9 4-2 2h-5l-4 2-1-2h2z" fill="#6F7A43"/>
<path transform="translate(770,294)" d="m0 0 1 3-7 20-1-4 6-18z" fill="#6F7A43"/>
<path transform="translate(445,162)" d="m0 0h1v8h-23v-1l20-1z" fill="#6F7A43"/>
<path transform="translate(500,102)" d="m0 0h11l-4 2-11 4-2-1 2-4z" fill="#6F7A43"/>
<path transform="translate(216,743)" d="m0 0h1v22l-2-2v-6l-2-2 2-5z" fill="#6F7A43"/>
<path transform="translate(706,735)" d="m0 0 3 1 1 4-4 2h-3l1-5z" fill="#6F7A43"/>
<path transform="translate(486,105)" d="m0 0 4 1v2l4 1-6 3h-2l-2-6z" fill="#6F7A43"/>
<path transform="translate(770,135)" d="m0 0 2 2v3h2l1 15-2-4-3-13z" fill="#6F7A43"/>
<path transform="translate(751,92)" d="m0 0 5 5 1 4-3 1-5-9z" fill="#6F7A43"/>
<path transform="translate(546,557)" d="m0 0 3 2 1 8-1 9h-1v-14h-2z" fill="#6F7A43"/>
<path transform="translate(547,758)" d="m0 0 3 1 1 6-7-1 1-5z" fill="#6F7A43"/>
<path transform="translate(696,739)" d="m0 0 6 1v3l-6 1-2-1z" fill="#6F7A43"/>
<path transform="translate(731,286)" d="m0 0v3l-11 11h-2l1-3 8-7z" fill="#6E7942"/>
<path transform="translate(697,54)" d="m0 0 5 2 7 5-2 1-5-2-5-4z" fill="#6F7A43"/>
<path transform="translate(727,755)" d="m0 0v3l-6 5-6 1 5-4z" fill="#6D7842"/>
<path transform="translate(408,383)" d="m0 0 2 2 1 9-3-1-2-5z" fill="#6F7A43"/>
<path transform="translate(775,278)" d="m0 0 1 4-4 12h-1v-8z" fill="#6F7A43"/>
</svg>
